<?xml version="1.0" encoding="UTF-8"?>
<svg id="Calque_1" data-name="Calque 1" xmlns="http://www.w3.org/2000/svg" viewBox="0 0 48 48">
  <defs>
    <style>
      .cls-1 {
        fill: #d00;
      }
    </style>
  </defs>
  <path class="cls-1" d="M24,12.08c-.49,0-.88,.4-.88,.88s.4,.88,.88,.88,.88-.4,.88-.88-.4-.88-.88-.88Z"/>
  <path class="cls-1" d="M43,0H5C2.24,0,0,2.24,0,5V43c0,2.76,2.24,5,5,5H43c2.76,0,5-2.24,5-5V5c0-2.76-2.24-5-5-5Zm-6.81,44s-1.92-.12-2.1-3.47c0,0-1.42-11.77-6.25-16.99,0,0-2.16-2.22-2.29-4.82v-.58h-.54v-1.07l-.41-1.24s-.3,.22-.58,.25h0s-.01,0-.02,0-.01,0-.02,0h0c-.28-.02-.58-.25-.58-.25l-.41,1.24v1.07h-.54v.58c-.12,2.6-2.29,4.82-2.29,4.82-4.83,5.23-6.25,16.99-6.25,16.99-.19,3.34-2.1,3.47-2.1,3.47-1.92,.06-1.92-2.54-1.92-2.54,.31-9.22,6.75-19.99,6.75-19.99,1.61-3.03-.63-5.61-.63-5.61l.84-.53,1.15,.68,.87-.28,.46,.12,.46-.25,.56,.25,.62-2.35h.43v-.5h-.29l-.76-3.34,.87-5.45,.65-.22,1.61,6.55c.22,.01,.46,.15,.53,.19,.07-.04,.3-.17,.53-.19l1.61-6.55,.65,.22,.87,5.45-.76,3.34h-.29v.5h.43l.62,2.35,.56-.25,.46,.25,.46-.12,.87,.28,1.15-.68,.84,.53s-2.24,2.58-.63,5.61h0s6.44,10.77,6.75,19.99c0,0,0,2.6-1.92,2.54Z"/>
</svg>