<?xml version="1.0" encoding="UTF-8"?>
<svg width="1200pt" height="1200pt" version="1.1" viewBox="0 0 1200 1200" xmlns="http://www.w3.org/2000/svg">
 <path d="m608.04 330.12c-56.559-1.8359-112.06 15.637-157.36 49.551-45.305 33.91-77.715 82.234-91.895 137.02-14.176 54.785-9.2812 112.77 13.887 164.39 23.168 51.633 63.223 93.84 113.57 119.67v59.16c0.066407 5.5859 4.6133 10.078 10.203 10.078h34.922-0.003906c5.5391-0.066406 10.016-4.5391 10.082-10.078v-19.922c-0.027344-4.5 1.9336-8.7773 5.3594-11.695 3.4258-2.9141 7.9648-4.168 12.398-3.4258 3.6484 0.51953 6.9883 2.332 9.4102 5.1055 2.4258 2.7773 3.7695 6.332 3.7891 10.016v19.922c0.066406 5.5391 4.543 10.012 10.082 10.078h35.039c5.5391-0.066406 10.016-4.5391 10.082-10.078v-19.922c0.011719-3.6484 1.3203-7.1758 3.6953-9.9453 2.375-2.7695 5.6602-4.6055 9.2617-5.1758 4.4727-0.82422 9.082 0.39453 12.562 3.3203 3.4844 2.9258 5.4766 7.2539 5.4375 11.801v19.922c0 5.5664 4.5156 10.078 10.082 10.078h34.922-0.003906c2.6758 0 5.2383-1.0625 7.1289-2.9531s2.9531-4.4531 2.9531-7.125v-59.16c49.113-25.199 88.469-65.996 111.89-115.99 23.414-49.992 29.559-106.34 17.473-160.21-12.086-53.863-41.719-102.19-84.246-137.38-42.527-35.195-95.539-55.27-150.71-57.066zm-108 383.04c-17.164 0.19141-33.703-6.4531-45.969-18.461-12.27-12.012-19.254-28.41-19.426-45.574-0.16797-17.168 6.4922-33.699 18.52-45.949 12.023-12.254 28.43-19.219 45.594-19.371 17.168-0.14844 33.691 6.5352 45.93 18.574 12.234 12.043 19.184 28.453 19.312 45.621 0.12891 17.156-6.5664 33.656-18.605 45.875-12.039 12.223-28.441 19.156-45.594 19.285zm94.32 41.039c0 4.8711-1.9336 9.5391-5.375 12.984-3.4453 3.4414-8.1133 5.375-12.984 5.375-7.2227 0-13.078-5.8555-13.078-13.078v-14.641c0.03125-4.1484 1.6992-8.1172 4.6445-11.039 2.9453-2.9219 6.9258-4.5625 11.074-4.5625 4.1328 0.035157 8.0898 1.6719 11.039 4.5625 2.9492 2.9141 4.5938 6.8945 4.5586 11.039zm43.078 5.2812h0.003906c0 3.5312-1.4258 6.9141-3.957 9.3789-2.5352 2.4609-5.9531 3.7969-9.4844 3.6992-4.8477-0.03125-9.4883-1.9805-12.906-5.418-3.4141-3.4414-5.332-8.0938-5.332-12.941v-9.3594c-0.035157-4.1445 1.6094-8.125 4.5586-11.039 2.9492-2.8906 6.9062-4.5273 11.039-4.5625 4.1484 0 8.1289 1.6406 11.074 4.5625 2.9453 2.9219 4.6133 6.8906 4.6445 11.039zm63-46.32h0.003906c-17.141 0.0625-33.605-6.6797-45.777-18.746-12.172-12.07-19.059-28.477-19.141-45.613-0.085938-17.141 6.6367-33.613 18.688-45.801 12.055-12.188 28.453-19.094 45.59-19.199 17.141-0.10547 33.621 6.5977 45.824 18.633 12.203 12.039 19.129 28.426 19.254 45.566 0.12891 17.238-6.6289 33.812-18.773 46.047s-28.668 19.113-45.906 19.113z"/>
</svg>
