<?xml version="1.0" encoding="UTF-8"?>
<svg id="Calque_1" data-name="Calque 1" xmlns="http://www.w3.org/2000/svg" viewBox="0 0 645.45 89">
  <defs>
    <style>
      .cls-1 {
        fill: #d00;
      }

      .cls-2 {
        fill: none;
        stroke: #d00;
        stroke-miterlimit: 10;
        stroke-width: 5px;
      }

      .cls-3 {
        letter-spacing: .03em;
      }

      .cls-4 {
        letter-spacing: .07em;
      }

      .cls-5 {
        font-family: Plavsky, Plavsky;
        font-size: 72px;
      }

      .cls-6 {
        letter-spacing: .04em;
      }
    </style>
  </defs>
  <text class="cls-5" transform="translate(101.09 69.29)"><tspan class="cls-6" x="0" y="0">G</tspan><tspan class="cls-4" x="53.79" y="0">UN</tspan><tspan class="cls-3" x="165.73" y="0">P</tspan><tspan x="219.06" y="0">LA.</tspan><tspan class="cls-4" x="327.16" y="0">H</tspan><tspan class="cls-6" x="383.13" y="0">E</tspan><tspan x="431.65" y="0">LP</tspan></text>
  <g>
    <path class="cls-1" d="M46,22.27c-.92,0-1.67,.71-1.67,1.59s.75,1.59,1.67,1.59,1.67-.71,1.67-1.59-.75-1.59-1.67-1.59Z"/>
    <path class="cls-1" d="M6,3c-2.14,2.14-4.14,78.59-1,81.73s82,0,82,0V2.73S8.14,.86,6,3Zm63.07,76.73s-3.63-.22-3.98-6.24c0,0-2.69-21.18-11.83-30.59,0,0-4.09-3.99-4.32-8.68v-1.04h-1.02v-1.93l-.78-2.23s-.57,.4-1.09,.44h0s-.03,0-.04,0-.03,0-.04,0h0c-.53-.04-1.09-.45-1.09-.45l-.78,2.23v1.93h-1.02v1.04c-.23,4.68-4.32,8.68-4.32,8.68-9.14,9.41-11.83,30.59-11.83,30.59-.35,6.02-3.98,6.24-3.98,6.24-3.63,.11-3.63-4.57-3.63-4.57,.59-16.6,12.77-35.99,12.77-35.99,3.05-5.46-1.19-10.1-1.19-10.1l1.58-.95,2.17,1.23,1.64-.5,.88,.22,.88-.45,1.05,.45,1.17-4.24h.82v-.89h-.56l-1.44-6.02,1.64-9.81,1.23-.39,3.05,11.79c.42,.02,.86,.26,.99,.34,.13-.08,.58-.31,.99-.34l3.05-11.79,1.23,.39,1.64,9.81-1.44,6.02h-.56v.89h.82l1.17,4.24,1.05-.45,.88,.45,.88-.22,1.64,.5,2.17-1.23,1.58,.95s-4.24,4.64-1.19,10.1h0s12.18,19.39,12.77,35.99c0,0,0,4.68-3.63,4.57Z"/>
  </g>
  <rect class="cls-2" x="2.5" y="2.5" width="640.45" height="84" rx="12" ry="12"/>
</svg>