<?xml version="1.0" encoding="UTF-8"?>
<svg id="Calque_1" data-name="Calque 1" xmlns="http://www.w3.org/2000/svg" viewBox="0 0 645.45 89">
  <defs>
    <style>.cls-1{fill: #d00;} .cls-2{fill: none; stroke: #d00; stroke-miterlimit: 10; stroke-width: 5px; }</style>
  </defs>
  <g>
    <path d="M148.55,68.67c0,.59-.29,.88-.88,.88h-33.4c-3.63,0-6.74-1.29-9.32-3.87-2.58-2.58-3.87-5.68-3.87-9.32v-23.73c0-3.63,1.29-6.74,3.87-9.32,2.58-2.58,5.68-3.87,9.32-3.87h33.4c.59,0,.88,.29,.88,.88v6.15c0,.59-.29,.88-.88,.88h-33.4c-.96,0-1.79,.52-2.48,1.55-.69,1.03-1.04,2.27-1.04,3.73v23.73c0,1.45,.35,2.7,1.04,3.73,.69,1.03,1.52,1.55,2.48,1.55h24.61v-13.18h-13.18c-.59,0-.88-.29-.88-.88v-6.15c0-.59,.29-.88,.88-.88h21.97c.59,0,.88,.29,.88,.88v27.25Z"/>
    <path d="M154.88,20.33c0-.59,.29-.88,.88-.88h7.91c.59,0,.88,.29,.88,.88V56.37c0,1.45,.35,2.7,1.04,3.73,.69,1.03,1.52,1.55,2.48,1.55h21.09c.96,0,1.79-.52,2.48-1.55,.69-1.03,1.04-2.27,1.04-3.73V20.33c0-.59,.29-.88,.88-.88h7.91c.59,0,.88,.29,.88,.88V56.37c0,3.63-1.29,6.74-3.87,9.32-2.58,2.58-5.68,3.87-9.32,3.87h-21.09c-3.63,0-6.74-1.29-9.32-3.87-2.58-2.58-3.87-5.68-3.87-9.32V20.33Z"/>
    <path d="M248.64,54.61V20.33c0-.59,.29-.88,.88-.88h7.91c.59,0,.88,.29,.88,.88v48.34c0,.59-.29,.88-.88,.88h-7.03c-.59,0-1.17-.29-1.76-.88l-28.12-34.28v34.28c0,.59-.29,.88-.88,.88h-7.91c-.59,0-.88-.29-.88-.88V20.33c0-.59,.29-.88,.88-.88h7.03c.59,0,1.17,.29,1.76,.88l28.12,34.28Z"/>
    <path d="M301.1,53.73h-24.61v14.94c0,.59-.29,.88-.88,.88h-7.91c-.59,0-.88-.29-.88-.88V20.33c0-.59,.29-.88,.88-.88h33.4c3.63,0,6.74,1.29,9.32,3.87,2.58,2.58,3.87,5.68,3.87,9.32v7.91c0,3.63-1.29,6.74-3.87,9.32-2.58,2.58-5.68,3.87-9.32,3.87Zm0-7.91c.96,0,1.79-.52,2.48-1.55,.69-1.03,1.04-2.27,1.04-3.73v-7.91c0-1.45-.35-2.7-1.04-3.73-.69-1.03-1.52-1.55-2.48-1.55h-24.61v18.46h24.61Z"/>
    <path d="M321.03,19.45h7.91c.59,0,.88,.29,.88,.88V61.64h31.64c.59,0,.88,.29,.88,.88v6.15c0,.59-.29,.88-.88,.88h-40.43c-.59,0-.88-.29-.88-.88V20.33c0-.59,.29-.88,.88-.88Z"/>
    <path d="M378.97,55.49l-3.45,13.18c-.59,.59-1.17,.88-1.76,.88h-7.03c-.59,0-.88-.29-.88-.88l12.3-48.34c.59-.59,1.17-.88,1.76-.88h17.58c.59,0,1.17,.29,1.76,.88l12.3,48.34c0,.59-.29,.88-.88,.88h-7.03c-.59,0-1.17-.29-1.76-.88l-3.45-13.18h-19.48Zm17.4-7.91l-5.03-20.21h-5.27l-5.03,20.21h15.33Z"/>
    <path d="M415.95,61.64h7.91c.59,0,.88,.29,.88,.88v6.15c0,.59-.29,.88-.88,.88h-7.91c-.59,0-.88-.29-.88-.88v-6.15c0-.59,.29-.88,.88-.88Z"/>
    <path d="M466.05,40.54V20.33c0-.59,.29-.88,.88-.88h7.91c.59,0,.88,.29,.88,.88v48.34c0,.59-.29,.88-.88,.88h-7.91c-.59,0-.88-.29-.88-.88v-20.21h-28.12v20.21c0,.59-.29,.88-.88,.88h-7.91c-.59,0-.88-.29-.88-.88V20.33c0-.59,.29-.88,.88-.88h7.91c.59,0,.88,.29,.88,.88v20.21h28.12Z"/>
    <path d="M485.11,19.45h40.43c.59,0,.88,.29,.88,.88v6.15c0,.59-.29,.88-.88,.88h-31.64v13.18h31.64c.59,0,.88,.29,.88,.88v6.15c0,.59-.29,.88-.88,.88h-31.64v13.18h31.64c.59,0,.88,.29,.88,.88v6.15c0,.59-.29,.88-.88,.88h-40.43c-.59,0-.88-.29-.88-.88V20.33c0-.59,.29-.88,.88-.88Z"/>
    <path d="M533.62,19.45h7.91c.59,0,.88,.29,.88,.88V61.64h31.64c.59,0,.88,.29,.88,.88v6.15c0,.59-.29,.88-.88,.88h-40.43c-.59,0-.88-.29-.88-.88V20.33c0-.59,.29-.88,.88-.88Z"/>
    <path d="M612.72,53.73h-24.61v14.94c0,.59-.29,.88-.88,.88h-7.91c-.59,0-.88-.29-.88-.88V20.33c0-.59,.29-.88,.88-.88h33.4c3.63,0,6.74,1.29,9.32,3.87s3.87,5.68,3.87,9.32v7.91c0,3.63-1.29,6.74-3.87,9.32s-5.68,3.87-9.32,3.87Zm0-7.91c.96,0,1.79-.52,2.48-1.55s1.04-2.27,1.04-3.73v-7.91c0-1.45-.35-2.7-1.04-3.73s-1.52-1.55-2.48-1.55h-24.61v18.46h24.61Z"/>
  </g>
  <g>
    <path class="cls-1" d="M46,22.72c-.92,0-1.67,.71-1.67,1.59s.75,1.59,1.67,1.59,1.67-.71,1.67-1.59-.75-1.59-1.67-1.59Z"/>
    <path class="cls-1" d="M6,3.45c-2.14,2.14-4.14,78.59-1,81.73s82,0,82,0V3.18S8.14,1.32,6,3.45Zm63.07,76.73s-3.63-.22-3.98-6.24c0,0-2.69-21.18-11.83-30.59,0,0-4.09-3.99-4.32-8.68v-1.04h-1.02v-1.93l-.78-2.23s-.57,.4-1.09,.44h0s-.03,0-.04,0-.03,0-.04,0h0c-.53-.04-1.09-.45-1.09-.45l-.78,2.23v1.93h-1.02v1.04c-.23,4.68-4.32,8.68-4.32,8.68-9.14,9.41-11.83,30.59-11.83,30.59-.35,6.02-3.98,6.24-3.98,6.24-3.63,.11-3.63-4.57-3.63-4.57,.59-16.6,12.77-35.99,12.77-35.99,3.05-5.46-1.19-10.1-1.19-10.1l1.58-.95,2.17,1.23,1.64-.5,.88,.22,.88-.45,1.05,.45,1.17-4.24h.82v-.89h-.56l-1.44-6.02,1.64-9.81,1.23-.39,3.05,11.79c.42,.02,.86,.26,.99,.34,.13-.08,.58-.31,.99-.34l3.05-11.79,1.23,.39,1.64,9.81-1.44,6.02h-.56v.89h.82l1.17,4.24,1.05-.45,.88,.45,.88-.22,1.64,.5,2.17-1.23,1.58,.95s-4.24,4.64-1.19,10.1h0s12.18,19.39,12.77,35.99c0,0,0,4.68-3.63,4.57Z"/>
  </g>
  <rect class="cls-2" x="2.5" y="2.5" width="640.45" height="84" rx="12" ry="12"/>
</svg>