<?xml version="1.0" encoding="UTF-8"?>
<svg width="1200pt" height="1200pt" version="1.1" viewBox="0 0 1200 1200" xmlns="http://www.w3.org/2000/svg">
  <path d="m1099.2 129.6c-10.801-10.801-24-15.602-39.602-15.602-14.398 0-28.801 6-39.602 15.602l-409.2 410.4-66-9.6016c-2.3984-14.398-10.801-25.199-21.602-28.801h-4.8008c-16.801 0-32.398 18-38.398 44.398-6 28.801 2.3984 54 21.602 57.602h4.8008c10.801 0 21.602-8.3984 30-21.602l28.801 3.6016-104.4 104.4c11.996-40.797 7.1953-89.996-16.805-134.39l-45.602-80.398c-3.6016-6-10.801-7.1992-15.602-4.8008l-225.6 126c-6 3.6016-7.1992 10.801-4.8008 15.602l19.199 33.602v1.1992l25.199 45.602c31.199 55.199 85.199 88.801 140.4 88.801 12 0 24-2.3984 36-4.8008l-160.8 162c-1.1992 1.1992-2.3984 3.6016-2.3984 4.8008 0 0-10.801 39.602-62.398 100.8-3.6016 4.8008-3.6016 12 1.1992 15.602l21.602 21.602c2.3984 2.3984 4.8008 3.6016 8.3984 3.6016 3.6016 0 6-1.1992 8.3984-3.6016 48-50.398 98.398-62.398 98.398-62.398 2.3984 0 3.6016-1.1992 6-3.6016l282-282c57.602-57.602 134.4-75.602 170.4-39.602l56.398 56.398c12 12 27.602 18 42 18 14.398 0 31.199-6 42-18 24-24 24-61.199 0-85.199l-121.2-121.2 337.2-337.2c20.398-20.398 20.398-55.199-1.2031-76.797zm-715.2 366 7.1992 13.199-205.2 115.2-7.1992-13.199zm-165.6 186-20.398-36 205.2-115.2 20.398 36c37.199 67.199 21.602 147.6-34.801 178.8-15.602 8.3984-32.398 13.199-50.398 13.199-46.797-0.003906-93.598-30.004-120-76.801zm286.8-99.602c-2.3984-1.1992-7.1992-12-3.6016-30 3.6016-18 13.199-26.398 15.602-26.398 2.3984 1.1992 7.1992 12 3.6016 30-3.6016 18-13.199 26.398-15.602 26.398zm38.402-21.602c0-2.3984 1.1992-4.8008 1.1992-7.1992l45.602 7.1992-6 6zm-267.6 438c-12 3.6016-55.199 18-98.398 58.801l-6-6c42-51.602 56.398-87.602 60-98.398l723.6-723.6 45.602 45.602-444 442.8zm370.8-338.4 31.199-31.199 24 24c-18-1.1992-36 1.1992-55.199 7.1992zm220.8 21.602c14.398 14.398 14.398 37.199 0 51.602-14.398 14.398-37.199 14.398-51.602 0l-121.2-120 51.602-51.602zm216-490.8-67.199 67.199-45.602-45.602 67.199-67.199c6-6 14.398-9.6016 22.801-9.6016 8.3984 0 16.801 3.6016 22.801 9.6016 12 13.199 12 33.602 0 45.602z"/>
</svg>
