<?xml version="1.0" encoding="UTF-8"?>
<svg width="1200pt" height="1200pt" version="1.1" viewBox="0 0 1200 1200" xmlns="http://www.w3.org/2000/svg">
 <path d="m576.28 736.95 10.859 10.859 568.51-568.51-118.8-118.8-568.52 568.51 10.859 10.859c13.98 13.98 17.004 33.973 2.0391 52.957l-2.8672-2.8672-22.957 0.35938c-16.488 0.79297-30.445 11.531-35.293 27.312l-1.2617 4.5703c-1.8828 6.168-5.3633 11.578-9.9609 15.625l-245.6 204.66c-24.938 22.031-45.898 49.922-62.375 82.945l-9.7812 19.57c-3.5742 5.5781-4.5703 12.359-2.7227 18.758 4.2969 14.941 13.176 29.137 24.719 40.691 11.531 11.531 25.727 20.426 40.727 24.77 6.4336 1.8711 13.223 0.875 18.816-2.7109l19.57-9.7812c33.047-16.512 60.961-37.5 83.664-63.191l203.81-244.64c4.2734-4.8477 9.7812-8.4258 15.938-10.297l4.7891-1.4766c15.781-4.8594 26.125-18.395 26.914-34.871l0.35938-22.957-4.4023-4.4023c18.973-14.941 38.965-11.93 52.957 2.0625zm477.55-489.77-16.969 16.969-84.852-84.852 16.969-16.969zm-67.883-101.83 16.969-16.969 84.852 84.852-16.969 16.969zm33.934 135.77-16.969 16.969-84.852-84.852 16.969-16.969zm-33.934 33.945-16.969 16.969-84.852-84.852 16.969-16.969zm-33.938 33.938-16.969 16.969-84.852-84.852 16.969-16.969zm-33.949 33.938-16.969 16.969-84.852-84.852 16.969-16.969zm-33.934 33.945-16.969 16.969-84.852-84.852 16.969-16.969zm-33.949 33.938-16.969 16.969-84.852-84.852 16.969-16.969zm-33.938 33.949-16.969 16.969-84.852-84.852 16.969-16.969zm-33.945 33.934-16.969 16.969-84.852-84.852 16.969-16.969zm-33.938 33.938-16.969 16.969-84.852-84.852 16.969-16.969zm-33.934 33.949-16.969 16.969-84.852-84.852 16.969-16.969zm-33.949 33.934-16.969 16.969-84.852-84.852 16.969-16.969zm398.81-483.66 42.434 42.434-16.969 16.969-84.867-84.855 16.969-16.969zm-585.89 637.32-4.7891 1.4766c-10.402 3.1914-19.691 9.2031-27.109 17.629l-204.24 245.14c-19.969 22.586-45.445 41.711-75.719 56.844l-21.191 10.848c-21.625-6.2773-42.637-27.324-49.008-48.145l11.074-21.84c15.109-30.254 34.234-55.727 57.086-75.926l245.14-204.24c8.1836-7.1992 14.195-16.5 17.387-26.902l1.4648-4.7773c1.8828-6.1445 6.6602-9.6836 13.105-9.9844l12.336 0.15625 34.285 34.285 0.16797 12.348c-0.30469 6.418-3.8438 11.207-9.9883 13.09zm4.875-64.332c23.605-27.301 24.898-50.809 3.1562-79.98l60.254-60.254 84.852 84.852-60.254 60.254c-29.172-21.73-52.68-20.449-79.98 3.1562z"/>
</svg>
