<?xml version="1.0" encoding="UTF-8"?>
<svg width="512pt" height="512pt" version="1.1" viewBox="0 0 512 512" xmlns="http://www.w3.org/2000/svg">
 <path d="m509.58 8.082c-0.15625-1.9531-1.7109-3.5078-3.6641-3.6641-13.465-1.0898-26.906-0.054688-39.965 3.0742-0.89844 0.21484-1.7852 0.4375-2.6602 0.66797-20.109 5.2852-38.816 16.148-54.09 31.426l-64.773 64.773c-6.0586 6.0586-9.8398 13.949-10.969 22.262-67.105 1.3516-162.1 12.484-240.76 56.969-0.21094 0.12109-0.41016 0.25781-0.59766 0.41406-2.3047 1.9258-56.691 47.656-82.727 89.605-5.9453 9.5781-3.8086 22.129 4.9766 29.191 4.0391 3.25 8.8477 4.9531 13.82 4.9531 1.1953 0 2.4023-0.097656 3.6133-0.30078 6.3125-1.043 11.961-4.8359 15.496-10.402 20.465-32.215 46.188-59.09 76.453-79.887 75.344-51.766 158.95-52.609 216.83-43.789 3.3281 22.172 5.4727 50.098 3.0352 80.703l-59.371 59.371c-4.4336 4.4336-7.8828 9.8984-9.9805 15.805l-20.543 57.895c-5.7109 16.09-4.2852 33.551 3.8398 48.414-12.383 11.43-25.93 21.848-40.594 31.164-5.5664 3.5352-9.3594 9.1875-10.402 15.496-1.0273 6.2305 0.625 12.422 4.6562 17.434 4.375 5.4375 10.855 8.3281 17.43 8.3281 4.0391 0 8.1172-1.0938 11.762-3.3555 41.949-26.035 87.68-80.426 89.605-82.727 0.15625-0.1875 0.29297-0.38672 0.41406-0.59766 31.09-54.977 49.723-123.93 55.379-204.95 1.1953-17.105 9.2422-33.312 22.66-45.637l65.965-65.914c15.273-15.273 26.141-33.977 31.426-54.09 0.23047-0.875 0.45312-1.7617 0.66797-2.6602 3.1211-13.062 4.1562-26.508 3.0664-39.969zm-267.78 156.05c-45.398 6.1133-86.648 21.738-122.61 46.441-31.16 21.406-57.629 49.062-78.676 82.188-2.3164 3.6484-5.9805 6.1289-10.047 6.8008-3.957 0.65625-7.9023-0.41016-11.117-2.9961-5.6367-4.5312-7.0078-12.59-3.1914-18.738 24.426-39.359 76.527-83.852 80.789-87.457 76.996-43.426 170.19-54.375 236.25-55.742 0.15234 2.1758 0.47656 4.3477 1.0039 6.4961 1.6133 6.5312 3.3867 14.625 5.0117 23.973-33.332-4.8516-66.078-5.1836-97.418-0.96484zm223.52-148.23c0.82031-0.21484 1.6484-0.42578 2.4922-0.625 9.0898-2.1797 18.383-3.2734 27.734-3.2734 0.26172 0 0.51953 0.007812 0.78125 0.011719l-31.527 31.527-28.566 7.7891-8.5742-17.145c11.426-8.5117 24.207-14.75 37.66-18.285zm-4.1406 36.918-6.4883 23.797-23.797 6.4883 6.4883-23.797zm-199.95 337.01 20.543-57.895c1.6992-4.793 4.5-9.2266 8.0977-12.824l52.465-52.465c-0.57422 4.8203-1.2695 9.6914-2.0977 14.609l-41.418 41.418c-4.4336 4.4336-7.8828 9.8984-9.9805 15.805l-19.328 54.473c-3.4609 9.7539-3.1797 20.586 0.69141 30.145-2.1641 2.2773-4.3789 4.5117-6.6289 6.7188-6.1445-12.434-7.0391-26.742-2.3438-39.984zm76.293-94.547c-6.8477 31.355-19.379 63.961-40.699 94.992-6.2734 9.1289-13.105 17.836-20.465 26.121-1.8828-6.7812-1.6797-14.086 0.69141-20.766l19.328-54.473c1.6992-4.793 4.5-9.2266 8.0977-12.824zm65.504-130.45c-14.93 13.711-23.891 31.812-25.23 50.969-5.5625 79.664-23.789 147.38-54.18 201.25-3.6055 4.2617-48.078 56.352-87.457 80.789-6.1445 3.8164-14.203 2.4453-18.738-3.1914-2.5859-3.2148-3.6484-7.1641-2.9961-11.117 0.67188-4.0664 3.1484-7.7305 6.8008-10.047 33.129-21.047 60.781-47.516 82.188-78.676 29.242-42.562 45.664-92.191 48.812-147.52 2.543-44.703-4.1758-83.445-10.262-108.08-2.5742-10.43 0.52734-21.613 8.1055-29.188l64.773-64.773c2.0742-2.0742 4.2227-4.0508 6.4219-5.9453l8.5859 17.172-8.5312 31.281c-0.27344 1.0039-0.13672 2.0547 0.34375 2.9453l-0.003906 0.003907 19.434 36.09zm65.723-65.684-21.746 21.746-15.91-29.547 26.426-7.207 17.172 8.5859c-1.8945 2.2031-3.8711 4.3477-5.9414 6.4219zm29.969-52.961c-0.20312 0.84375-0.41016 1.6758-0.62891 2.4961-3.5352 13.453-9.7734 26.234-18.281 37.656l-17.145-8.5742 7.793-28.566 31.52-31.52c0.0625 9.6133-1.0195 19.168-3.2578 28.508z"/>
</svg>
