<?xml version="1.0" encoding="UTF-8"?>
<svg width="512pt" height="512pt" version="1.1" viewBox="0 0 512 512" xmlns="http://www.w3.org/2000/svg">
 <path d="m455.68 390.14-142.34-142.34 115.2-115.2c4.6094-4.6094 7.168-10.754 7.168-17.406 0-6.6562-2.5586-12.801-7.168-17.406l-14.848-14.848c-4.6094-4.6094-10.754-7.168-17.406-7.168-6.6562 0-12.801 2.5586-17.406 7.168l-52.734 52.734-61.957 62.973-142.34-142.34c-2.0469-2.0469-5.1211-2.0469-7.168 0l-58.367 58.367c-2.0469 2.0469-2.0469 5.1211 0 7.168l142.34 142.34-100.86 100.86c-0.51172 0.51172-1.0234 1.0234-1.0234 2.0469l-19.969 61.953c-0.51172 2.0469 0 4.0977 1.0234 5.1211 1.0234 1.0234 2.0469 1.5352 3.5859 1.5352h1.5352l61.441-19.969c1.0234 0 1.5352-0.51172 2.0469-1.0234l100.86-100.86 142.85 141.82c1.0234 1.0234 2.0469 1.5352 3.5859 1.5352 1.5352 0 2.5586-0.51172 3.5859-1.5352l58.363-58.367c1.0234-1.0234 1.5352-2.0469 1.5352-3.5859 0-1.5352-1.0234-2.5586-1.5352-3.582zm-310.79 11.777c-3.5859-7.6797-8.1914-14.336-14.336-19.969-6.1445-6.1445-12.801-10.754-19.969-14.336l220.16-220.16 34.305 34.305zm227.33-227.84-34.301-34.301 23.039-23.039 34.305 34.305zm14.848-83.453c5.6328-5.6328 14.336-5.6328 19.969 0l14.848 14.848c5.6328 5.6328 5.6328 14.336 0 19.969l-18.945 18.945-34.305-34.305zm-319.48 27.648 50.688-50.688 34.816 34.816-19.969 19.453c-1.0234 1.0234-1.0234 2.5586 0 3.5859 0.51172 0.51172 1.0234 0.51172 2.0469 0.51172 1.0234 0 1.5352 0 2.0469-0.51172l19.457-19.457 29.695 29.695-19.457 19.457c-1.0234 1.0234-1.0234 2.5586 0 3.5859 0.51172 0.51172 1.0234 0.51172 2.0469 0.51172 1.0234 0 1.5352 0 2.0469-0.51172l19.457-19.457 29.695 29.695-20.477 19.453c-1.0234 1.0234-1.0234 2.5586 0 3.5859 0.51172 0.51172 1.0234 0.51172 2.0469 0.51172 1.0234 0 1.5352 0 2.0469-0.51172l19.457-19.457 33.793 33.793-50.688 50.688zm36.863 257.54c6.6562 3.0703 13.312 7.6797 18.434 12.801 5.6328 5.6328 9.7266 11.777 12.801 18.434l-46.594 15.359zm289.28 68.605-138.75-138.24 50.688-50.688 13.312 13.312-19.457 19.457c-1.0234 1.0234-1.0234 2.5586 0 3.5859 0.51172 0.51172 1.0234 0.51172 2.0469 0.51172 1.0234 0 1.5352 0 2.0469-0.51172l19.457-19.457 29.695 29.695-19.965 18.941c-1.0234 1.0234-1.0234 2.5586 0 3.5859 0.51172 0.51172 1.0234 0.51172 2.0469 0.51172 1.0234 0 1.5352 0 2.0469-0.51172l19.457-19.457 29.695 29.695-19.457 19.457c-1.0234 1.0234-1.0234 2.5586 0 3.5859 0.51172 0.51172 1.0234 0.51172 2.0469 0.51172 1.0234 0 1.5352 0 2.0469-0.51172l19.457-19.457 55.297 55.297z"/>
</svg>
