<?xml version="1.0" encoding="UTF-8"?>
<svg width="1200pt" height="1200pt" version="1.1" viewBox="0 0 1200 1200" xmlns="http://www.w3.org/2000/svg">
    <symbol id="ic-airbrush" viewBox="0 0 1200 1200">
        <path d="m1099.2 129.6c-10.801-10.801-24-15.602-39.602-15.602-14.398 0-28.801 6-39.602 15.602l-409.2 410.4-66-9.6016c-2.3984-14.398-10.801-25.199-21.602-28.801h-4.8008c-16.801 0-32.398 18-38.398 44.398-6 28.801 2.3984 54 21.602 57.602h4.8008c10.801 0 21.602-8.3984 30-21.602l28.801 3.6016-104.4 104.4c11.996-40.797 7.1953-89.996-16.805-134.39l-45.602-80.398c-3.6016-6-10.801-7.1992-15.602-4.8008l-225.6 126c-6 3.6016-7.1992 10.801-4.8008 15.602l19.199 33.602v1.1992l25.199 45.602c31.199 55.199 85.199 88.801 140.4 88.801 12 0 24-2.3984 36-4.8008l-160.8 162c-1.1992 1.1992-2.3984 3.6016-2.3984 4.8008 0 0-10.801 39.602-62.398 100.8-3.6016 4.8008-3.6016 12 1.1992 15.602l21.602 21.602c2.3984 2.3984 4.8008 3.6016 8.3984 3.6016 3.6016 0 6-1.1992 8.3984-3.6016 48-50.398 98.398-62.398 98.398-62.398 2.3984 0 3.6016-1.1992 6-3.6016l282-282c57.602-57.602 134.4-75.602 170.4-39.602l56.398 56.398c12 12 27.602 18 42 18 14.398 0 31.199-6 42-18 24-24 24-61.199 0-85.199l-121.2-121.2 337.2-337.2c20.398-20.398 20.398-55.199-1.2031-76.797zm-715.2 366 7.1992 13.199-205.2 115.2-7.1992-13.199zm-165.6 186-20.398-36 205.2-115.2 20.398 36c37.199 67.199 21.602 147.6-34.801 178.8-15.602 8.3984-32.398 13.199-50.398 13.199-46.797-0.003906-93.598-30.004-120-76.801zm286.8-99.602c-2.3984-1.1992-7.1992-12-3.6016-30 3.6016-18 13.199-26.398 15.602-26.398 2.3984 1.1992 7.1992 12 3.6016 30-3.6016 18-13.199 26.398-15.602 26.398zm38.402-21.602c0-2.3984 1.1992-4.8008 1.1992-7.1992l45.602 7.1992-6 6zm-267.6 438c-12 3.6016-55.199 18-98.398 58.801l-6-6c42-51.602 56.398-87.602 60-98.398l723.6-723.6 45.602 45.602-444 442.8zm370.8-338.4 31.199-31.199 24 24c-18-1.1992-36 1.1992-55.199 7.1992zm220.8 21.602c14.398 14.398 14.398 37.199 0 51.602-14.398 14.398-37.199 14.398-51.602 0l-121.2-120 51.602-51.602zm216-490.8-67.199 67.199-45.602-45.602 67.199-67.199c6-6 14.398-9.6016 22.801-9.6016 8.3984 0 16.801 3.6016 22.801 9.6016 12 13.199 12 33.602 0 45.602z"/>
    </symbol>

    <symbol id="ic-custo" viewBox="0 0 1200 1200">
        <path d="m576.28 736.95 10.859 10.859 568.51-568.51-118.8-118.8-568.52 568.51 10.859 10.859c13.98 13.98 17.004 33.973 2.0391 52.957l-2.8672-2.8672-22.957 0.35938c-16.488 0.79297-30.445 11.531-35.293 27.312l-1.2617 4.5703c-1.8828 6.168-5.3633 11.578-9.9609 15.625l-245.6 204.66c-24.938 22.031-45.898 49.922-62.375 82.945l-9.7812 19.57c-3.5742 5.5781-4.5703 12.359-2.7227 18.758 4.2969 14.941 13.176 29.137 24.719 40.691 11.531 11.531 25.727 20.426 40.727 24.77 6.4336 1.8711 13.223 0.875 18.816-2.7109l19.57-9.7812c33.047-16.512 60.961-37.5 83.664-63.191l203.81-244.64c4.2734-4.8477 9.7812-8.4258 15.938-10.297l4.7891-1.4766c15.781-4.8594 26.125-18.395 26.914-34.871l0.35938-22.957-4.4023-4.4023c18.973-14.941 38.965-11.93 52.957 2.0625zm477.55-489.77-16.969 16.969-84.852-84.852 16.969-16.969zm-67.883-101.83 16.969-16.969 84.852 84.852-16.969 16.969zm33.934 135.77-16.969 16.969-84.852-84.852 16.969-16.969zm-33.934 33.945-16.969 16.969-84.852-84.852 16.969-16.969zm-33.938 33.938-16.969 16.969-84.852-84.852 16.969-16.969zm-33.949 33.938-16.969 16.969-84.852-84.852 16.969-16.969zm-33.934 33.945-16.969 16.969-84.852-84.852 16.969-16.969zm-33.949 33.938-16.969 16.969-84.852-84.852 16.969-16.969zm-33.938 33.949-16.969 16.969-84.852-84.852 16.969-16.969zm-33.945 33.934-16.969 16.969-84.852-84.852 16.969-16.969zm-33.938 33.938-16.969 16.969-84.852-84.852 16.969-16.969zm-33.934 33.949-16.969 16.969-84.852-84.852 16.969-16.969zm-33.949 33.934-16.969 16.969-84.852-84.852 16.969-16.969zm398.81-483.66 42.434 42.434-16.969 16.969-84.867-84.855 16.969-16.969zm-585.89 637.32-4.7891 1.4766c-10.402 3.1914-19.691 9.2031-27.109 17.629l-204.24 245.14c-19.969 22.586-45.445 41.711-75.719 56.844l-21.191 10.848c-21.625-6.2773-42.637-27.324-49.008-48.145l11.074-21.84c15.109-30.254 34.234-55.727 57.086-75.926l245.14-204.24c8.1836-7.1992 14.195-16.5 17.387-26.902l1.4648-4.7773c1.8828-6.1445 6.6602-9.6836 13.105-9.9844l12.336 0.15625 34.285 34.285 0.16797 12.348c-0.30469 6.418-3.8438 11.207-9.9883 13.09zm4.875-64.332c23.605-27.301 24.898-50.809 3.1562-79.98l60.254-60.254 84.852 84.852-60.254 60.254c-29.172-21.73-52.68-20.449-79.98 3.1562z"/>
    </symbol>

    <symbol id="ic-nipper" viewBox="0 0 1200 1200">
        <path d="m509.58 8.082c-0.15625-1.9531-1.7109-3.5078-3.6641-3.6641-13.465-1.0898-26.906-0.054688-39.965 3.0742-0.89844 0.21484-1.7852 0.4375-2.6602 0.66797-20.109 5.2852-38.816 16.148-54.09 31.426l-64.773 64.773c-6.0586 6.0586-9.8398 13.949-10.969 22.262-67.105 1.3516-162.1 12.484-240.76 56.969-0.21094 0.12109-0.41016 0.25781-0.59766 0.41406-2.3047 1.9258-56.691 47.656-82.727 89.605-5.9453 9.5781-3.8086 22.129 4.9766 29.191 4.0391 3.25 8.8477 4.9531 13.82 4.9531 1.1953 0 2.4023-0.097656 3.6133-0.30078 6.3125-1.043 11.961-4.8359 15.496-10.402 20.465-32.215 46.188-59.09 76.453-79.887 75.344-51.766 158.95-52.609 216.83-43.789 3.3281 22.172 5.4727 50.098 3.0352 80.703l-59.371 59.371c-4.4336 4.4336-7.8828 9.8984-9.9805 15.805l-20.543 57.895c-5.7109 16.09-4.2852 33.551 3.8398 48.414-12.383 11.43-25.93 21.848-40.594 31.164-5.5664 3.5352-9.3594 9.1875-10.402 15.496-1.0273 6.2305 0.625 12.422 4.6562 17.434 4.375 5.4375 10.855 8.3281 17.43 8.3281 4.0391 0 8.1172-1.0938 11.762-3.3555 41.949-26.035 87.68-80.426 89.605-82.727 0.15625-0.1875 0.29297-0.38672 0.41406-0.59766 31.09-54.977 49.723-123.93 55.379-204.95 1.1953-17.105 9.2422-33.312 22.66-45.637l65.965-65.914c15.273-15.273 26.141-33.977 31.426-54.09 0.23047-0.875 0.45312-1.7617 0.66797-2.6602 3.1211-13.062 4.1562-26.508 3.0664-39.969zm-267.78 156.05c-45.398 6.1133-86.648 21.738-122.61 46.441-31.16 21.406-57.629 49.062-78.676 82.188-2.3164 3.6484-5.9805 6.1289-10.047 6.8008-3.957 0.65625-7.9023-0.41016-11.117-2.9961-5.6367-4.5312-7.0078-12.59-3.1914-18.738 24.426-39.359 76.527-83.852 80.789-87.457 76.996-43.426 170.19-54.375 236.25-55.742 0.15234 2.1758 0.47656 4.3477 1.0039 6.4961 1.6133 6.5312 3.3867 14.625 5.0117 23.973-33.332-4.8516-66.078-5.1836-97.418-0.96484zm223.52-148.23c0.82031-0.21484 1.6484-0.42578 2.4922-0.625 9.0898-2.1797 18.383-3.2734 27.734-3.2734 0.26172 0 0.51953 0.007812 0.78125 0.011719l-31.527 31.527-28.566 7.7891-8.5742-17.145c11.426-8.5117 24.207-14.75 37.66-18.285zm-4.1406 36.918-6.4883 23.797-23.797 6.4883 6.4883-23.797zm-199.95 337.01 20.543-57.895c1.6992-4.793 4.5-9.2266 8.0977-12.824l52.465-52.465c-0.57422 4.8203-1.2695 9.6914-2.0977 14.609l-41.418 41.418c-4.4336 4.4336-7.8828 9.8984-9.9805 15.805l-19.328 54.473c-3.4609 9.7539-3.1797 20.586 0.69141 30.145-2.1641 2.2773-4.3789 4.5117-6.6289 6.7188-6.1445-12.434-7.0391-26.742-2.3438-39.984zm76.293-94.547c-6.8477 31.355-19.379 63.961-40.699 94.992-6.2734 9.1289-13.105 17.836-20.465 26.121-1.8828-6.7812-1.6797-14.086 0.69141-20.766l19.328-54.473c1.6992-4.793 4.5-9.2266 8.0977-12.824zm65.504-130.45c-14.93 13.711-23.891 31.812-25.23 50.969-5.5625 79.664-23.789 147.38-54.18 201.25-3.6055 4.2617-48.078 56.352-87.457 80.789-6.1445 3.8164-14.203 2.4453-18.738-3.1914-2.5859-3.2148-3.6484-7.1641-2.9961-11.117 0.67188-4.0664 3.1484-7.7305 6.8008-10.047 33.129-21.047 60.781-47.516 82.188-78.676 29.242-42.562 45.664-92.191 48.812-147.52 2.543-44.703-4.1758-83.445-10.262-108.08-2.5742-10.43 0.52734-21.613 8.1055-29.188l64.773-64.773c2.0742-2.0742 4.2227-4.0508 6.4219-5.9453l8.5859 17.172-8.5312 31.281c-0.27344 1.0039-0.13672 2.0547 0.34375 2.9453l-0.003906 0.003907 19.434 36.09zm65.723-65.684-21.746 21.746-15.91-29.547 26.426-7.207 17.172 8.5859c-1.8945 2.2031-3.8711 4.3477-5.9414 6.4219zm29.969-52.961c-0.20312 0.84375-0.41016 1.6758-0.62891 2.4961-3.5352 13.453-9.7734 26.234-18.281 37.656l-17.145-8.5742 7.793-28.566 31.52-31.52c0.0625 9.6133-1.0195 19.168-3.2578 28.508z"/>
    </symbol>

    <symbol id="ic-tools" viewBox="0 0 1200 1200">
        <path d="m455.68 390.14-142.34-142.34 115.2-115.2c4.6094-4.6094 7.168-10.754 7.168-17.406 0-6.6562-2.5586-12.801-7.168-17.406l-14.848-14.848c-4.6094-4.6094-10.754-7.168-17.406-7.168-6.6562 0-12.801 2.5586-17.406 7.168l-52.734 52.734-61.957 62.973-142.34-142.34c-2.0469-2.0469-5.1211-2.0469-7.168 0l-58.367 58.367c-2.0469 2.0469-2.0469 5.1211 0 7.168l142.34 142.34-100.86 100.86c-0.51172 0.51172-1.0234 1.0234-1.0234 2.0469l-19.969 61.953c-0.51172 2.0469 0 4.0977 1.0234 5.1211 1.0234 1.0234 2.0469 1.5352 3.5859 1.5352h1.5352l61.441-19.969c1.0234 0 1.5352-0.51172 2.0469-1.0234l100.86-100.86 142.85 141.82c1.0234 1.0234 2.0469 1.5352 3.5859 1.5352 1.5352 0 2.5586-0.51172 3.5859-1.5352l58.363-58.367c1.0234-1.0234 1.5352-2.0469 1.5352-3.5859 0-1.5352-1.0234-2.5586-1.5352-3.582zm-310.79 11.777c-3.5859-7.6797-8.1914-14.336-14.336-19.969-6.1445-6.1445-12.801-10.754-19.969-14.336l220.16-220.16 34.305 34.305zm227.33-227.84-34.301-34.301 23.039-23.039 34.305 34.305zm14.848-83.453c5.6328-5.6328 14.336-5.6328 19.969 0l14.848 14.848c5.6328 5.6328 5.6328 14.336 0 19.969l-18.945 18.945-34.305-34.305zm-319.48 27.648 50.688-50.688 34.816 34.816-19.969 19.453c-1.0234 1.0234-1.0234 2.5586 0 3.5859 0.51172 0.51172 1.0234 0.51172 2.0469 0.51172 1.0234 0 1.5352 0 2.0469-0.51172l19.457-19.457 29.695 29.695-19.457 19.457c-1.0234 1.0234-1.0234 2.5586 0 3.5859 0.51172 0.51172 1.0234 0.51172 2.0469 0.51172 1.0234 0 1.5352 0 2.0469-0.51172l19.457-19.457 29.695 29.695-20.477 19.453c-1.0234 1.0234-1.0234 2.5586 0 3.5859 0.51172 0.51172 1.0234 0.51172 2.0469 0.51172 1.0234 0 1.5352 0 2.0469-0.51172l19.457-19.457 33.793 33.793-50.688 50.688zm36.863 257.54c6.6562 3.0703 13.312 7.6797 18.434 12.801 5.6328 5.6328 9.7266 11.777 12.801 18.434l-46.594 15.359zm289.28 68.605-138.75-138.24 50.688-50.688 13.312 13.312-19.457 19.457c-1.0234 1.0234-1.0234 2.5586 0 3.5859 0.51172 0.51172 1.0234 0.51172 2.0469 0.51172 1.0234 0 1.5352 0 2.0469-0.51172l19.457-19.457 29.695 29.695-19.965 18.941c-1.0234 1.0234-1.0234 2.5586 0 3.5859 0.51172 0.51172 1.0234 0.51172 2.0469 0.51172 1.0234 0 1.5352 0 2.0469-0.51172l19.457-19.457 29.695 29.695-19.457 19.457c-1.0234 1.0234-1.0234 2.5586 0 3.5859 0.51172 0.51172 1.0234 0.51172 2.0469 0.51172 1.0234 0 1.5352 0 2.0469-0.51172l19.457-19.457 55.297 55.297z"/>
    </symbol>
</svg>
