<?xml version="1.0" encoding="UTF-8"?>
<svg width="1200pt" height="1200pt" version="1.1" viewBox="0 0 1200 1200" xmlns="http://www.w3.org/2000/svg">
    <symbol id="ic-airbrush" viewBox="0 0 1200 1200">
        <path d="M1099.2,129.6c-10.8-10.8-24-15.6-39.6-15.6c-14.4,0-28.8,6-39.6,15.6L610.8,540l-66-9.6	c-2.4-14.4-10.8-25.2-21.6-28.8h-4.8c-16.8,0-32.4,18-38.4,44.4c-6,28.8,2.4,54,21.6,57.6h4.8c10.8,0,21.6-8.4,30-21.6l28.8,3.6	L460.8,690c12-40.8,7.2-90-16.8-134.4l-45.6-80.4c-3.6-6-10.8-7.2-15.6-4.8l-225.6,126c-6,3.6-7.2,10.8-4.8,15.6l19.2,33.6v1.2	l25.2,45.6c31.2,55.2,85.2,88.8,140.4,88.8c12,0,24-2.4,36-4.8l-160.8,162c-1.2,1.2-2.4,3.6-2.4,4.8c0,0-10.8,39.6-62.4,100.8	c-3.6,4.8-3.6,12,1.2,15.6l21.6,21.6c2.4,2.4,4.8,3.6,8.4,3.6c3.6,0,6-1.2,8.4-3.6c48-50.4,98.4-62.4,98.4-62.4c2.4,0,3.6-1.2,6-3.6	l282-282c57.6-57.6,134.4-75.6,170.4-39.6l56.4,56.4c12,12,27.6,18,42,18s31.2-6,42-18c24-24,24-61.2,0-85.2L763.2,543.6	l337.2-337.2C1120.8,186,1120.8,151.2,1099.2,129.6L1099.2,129.6z M384,495.6l7.2,13.2L186,624l-7.2-13.2L384,495.6z M218.4,681.6	l-20.4-36l205.2-115.2l20.4,36c37.2,67.2,21.6,147.6-34.8,178.8c-15.6,8.4-32.4,13.2-50.4,13.2C291.6,758.4,244.8,728.4,218.4,681.6	L218.4,681.6z M505.2,582c-2.4-1.2-7.2-12-3.6-30c3.6-18,13.2-26.4,15.6-26.4c2.4,1.2,7.2,12,3.6,30	C517.2,573.6,507.6,582,505.2,582L505.2,582z M543.6,560.4c0-2.4,1.2-4.8,1.2-7.2l45.6,7.2l-6,6L543.6,560.4z M276,998.4	c-12,3.6-55.2,18-98.4,58.8l-6-6c42-51.6,56.4-87.6,60-98.4l723.6-723.6l45.6,45.6l-444,442.8L276,998.4z M646.8,660l31.2-31.2	l24,24C684,651.6,666,654,646.8,660L646.8,660z M867.6,681.6c14.4,14.4,14.4,37.2,0,51.6c-14.4,14.4-37.2,14.4-51.6,0l-121.2-120	l51.6-51.6L867.6,681.6z M1083.6,190.8l-67.2,67.2l-45.6-45.6l67.2-67.2c6-6,14.4-9.6,22.8-9.6c8.4,0,16.8,3.6,22.8,9.6	C1095.6,158.4,1095.6,178.8,1083.6,190.8L1083.6,190.8z"/>
    </symbol>

    <symbol id="ic-custo" viewBox="0 0 1200 1200">
        <path c @&  ad="M576.3,737l10.9,10.9l568.5-568.5L1036.8,60.5L468.3,629l10.9,10.9c14,14,17,34,2,53l-2.9-2.9l-23,0.4	c-16.5,0.8-30.4,11.5-35.3,27.3l-1.3,4.6c-1.9,6.2-5.4,11.6-10,15.6L163.3,942.5c-24.9,22-45.9,49.9-62.4,82.9l-9.8,19.6	c-3.6,5.6-4.6,12.4-2.7,18.8c4.3,14.9,13.2,29.1,24.7,40.7c11.5,11.5,25.7,20.4,40.7,24.8c6.4,1.9,13.2,0.9,18.8-2.7l19.6-9.8	c33-16.5,61-37.5,83.7-63.2l203.8-244.6c4.3-4.8,9.8-8.4,15.9-10.3l4.8-1.5c15.8-4.9,26.1-18.4,26.9-34.9l0.4-23l-4.4-4.4	C542.3,720,562.3,723,576.3,737L576.3,737z M1053.8,247.2l-17,17L952,179.3l17-17L1053.8,247.2z M985.9,145.4l17-17l84.9,84.9	l-17,17L985.9,145.4z M1019.9,281.1l-17,17l-84.9-84.9l17-17L1019.9,281.1z M985.9,315.1l-17,17l-84.9-84.9l17-17L985.9,315.1z	 M952,349l-17,17l-84.9-84.9l17-17L952,349z M918.1,382.9l-17,17l-84.9-84.9l17-17L918.1,382.9z M884.1,416.9l-17,17L782.3,349	l17-17L884.1,416.9z M850.2,450.8l-17,17l-84.9-84.9l17-17L850.2,450.8z M816.2,484.8l-17,17l-84.9-84.9l17-17L816.2,484.8z	 M782.3,518.7l-17,17l-84.9-84.9l17-17L782.3,518.7z M748.4,552.6l-17,17l-84.9-84.9l17-17L748.4,552.6z M714.4,586.6l-17,17	l-84.9-84.9l17-17L714.4,586.6z M680.5,620.5l-17,17l-84.9-84.9l17-17L680.5,620.5z M1079.3,136.9l42.4,42.4l-17,17l-84.9-84.9	l17-17L1079.3,136.9z M493.4,774.2l-4.8,1.5c-10.4,3.2-19.7,9.2-27.1,17.6l-204.2,245.1c-20,22.6-45.4,41.7-75.7,56.8l-21.2,10.8	c-21.6-6.3-42.6-27.3-49-48.1l11.1-21.8c15.1-30.3,34.2-55.7,57.1-75.9L424.6,756c8.2-7.2,14.2-16.5,17.4-26.9l1.5-4.8	c1.9-6.1,6.7-9.7,13.1-10l12.3,0.2l34.3,34.3l0.2,12.3C503.1,767.5,499.5,772.3,493.4,774.2L493.4,774.2z M498.3,709.9	c23.6-27.3,24.9-50.8,3.2-80l60.3-60.3l84.9,84.9l-60.3,60.3c-29.2-21.7-52.7-20.4-80,3.2L498.3,709.9z"/>
    </symbol>

    <symbol id="ic-nipper" viewBox="0 0 1200 1200">
        <path  d="M1154.8,69.9c-0.3-4.1-3.6-7.4-7.8-7.8c-28.5-2.3-57-0.1-84.7,6.5c-1.9,0.5-3.8,0.9-5.6,1.4	c-42.6,11.2-82.3,34.2-114.6,66.6L804.7,274c-12.8,12.8-20.9,29.6-23.2,47.2c-142.2,2.9-343.6,26.5-510.3,120.7	c-0.4,0.3-0.9,0.5-1.3,0.9c-4.9,4.1-120.2,101-175.3,189.9c-12.6,20.3-8.1,46.9,10.5,61.9c8.6,6.9,18.8,10.5,29.3,10.5	c2.5,0,5.1-0.2,7.7-0.6c13.4-2.2,25.4-10.2,32.8-22c43.4-68.3,97.9-125.2,162-169.3c159.7-109.7,336.9-111.5,459.6-92.8	c7.1,47,11.6,106.2,6.4,171L677.1,717.1c-9.4,9.4-16.7,21-21.2,33.5l-43.5,122.7c-12.1,34.1-9.1,71.1,8.1,102.6	c-26.2,24.2-55,46.3-86,66c-11.8,7.5-19.8,19.5-22,32.8c-2.2,13.2,1.3,26.3,9.9,36.9c9.3,11.5,23,17.7,36.9,17.7	c8.6,0,17.2-2.3,24.9-7.1c88.9-55.2,185.8-170.5,189.9-175.3c0.3-0.4,0.6-0.8,0.9-1.3C840.9,829.2,880.4,683,892.4,511.3	c2.5-36.3,19.6-70.6,48-96.7l139.8-139.7c32.4-32.4,55.4-72,66.6-114.6c0.5-1.9,1-3.7,1.4-5.6C1154.9,126.9,1157.1,98.4,1154.8,69.9	L1154.8,69.9z M587.2,400.6c-96.2,13-183.6,46.1-259.9,98.4c-66,45.4-122.1,104-166.7,174.2c-4.9,7.7-12.7,13-21.3,14.4	c-8.4,1.4-16.7-0.9-23.6-6.3c-11.9-9.6-14.9-26.7-6.8-39.7c51.8-83.4,162.2-177.7,171.2-185.4c163.2-92,360.7-115.2,500.7-118.1	c0.3,4.6,1,9.2,2.1,13.8c3.4,13.8,7.2,31,10.6,50.8C723,392.4,653.6,391.7,587.2,400.6L587.2,400.6z M1061,86.5	c1.7-0.5,3.5-0.9,5.3-1.3c19.3-4.6,39-6.9,58.8-6.9c0.6,0,1.1,0,1.7,0l-66.8,66.8l-60.5,16.5l-18.2-36.3	C1005.4,107.2,1032.4,94,1061,86.5L1061,86.5z M1052.2,164.7l-13.8,50.4L988,228.9l13.8-50.4L1052.2,164.7z M628.4,879l43.5-122.7	c3.6-10.2,9.5-19.6,17.2-27.2l111.2-111.2c-1.2,10.2-2.7,20.5-4.4,31l-87.8,87.8c-9.4,9.4-16.7,21-21.2,33.5l-41,115.5	c-7.3,20.7-6.7,43.6,1.5,63.9c-4.6,4.8-9.3,9.6-14,14.2C620.3,937.4,618.4,907,628.4,879L628.4,879z M790.1,678.6	c-14.5,66.5-41.1,135.6-86.3,201.3c-13.3,19.3-27.8,37.8-43.4,55.4c-4-14.4-3.6-29.9,1.5-44l41-115.5c3.6-10.2,9.5-19.6,17.2-27.2	L790.1,678.6z M928.9,402.1c-31.6,29.1-50.6,67.4-53.5,108C863.7,679,825,822.5,760.6,936.7c-7.6,9-101.9,119.4-185.4,171.2	c-13,8.1-30.1,5.2-39.7-6.8c-5.5-6.8-7.7-15.2-6.4-23.6c1.4-8.6,6.7-16.4,14.4-21.3c70.2-44.6,128.8-100.7,174.2-166.7	c62-90.2,96.8-195.4,103.5-312.7c5.4-94.7-8.9-176.9-21.7-229.1c-5.5-22.1,1.1-45.8,17.2-61.9L954,148.7c4.4-4.4,8.9-8.6,13.6-12.6	l18.2,36.4l-18.1,66.3c-0.6,2.1-0.3,4.4,0.7,6.2l0,0l41.2,76.5L928.9,402.1z M1068.2,262.9l-46.1,46.1l-33.7-62.6l56-15.3l36.4,18.2	C1076.8,254,1072.6,258.5,1068.2,262.9L1068.2,262.9z M1131.7,150.7c-0.4,1.8-0.9,3.6-1.3,5.3c-7.5,28.5-20.7,55.6-38.7,79.8	l-36.3-18.2l16.5-60.5l66.8-66.8C1138.8,110.6,1136.5,130.9,1131.7,150.7L1131.7,150.7z"/>
    </symbol>

    <symbol id="ic-tools" viewBox="0 0 1200 1200">
        <path d="M1151.6,951.4L773.8,573.6l305.8-305.8c12.2-12.2,19-28.5,19-46.2c0-17.7-6.8-34-19-46.2l-39.4-39.4	c-12.2-12.2-28.5-19-46.2-19c-17.7,0-34,6.8-46.2,19l-140,140L643.3,443.1L265.5,65.3c-5.4-5.4-13.6-5.4-19,0L91.6,220.2	c-5.4,5.4-5.4,13.6,0,19l377.8,377.8L201.7,884.8c-1.4,1.4-2.7,2.7-2.7,5.4l-53,164.4c-1.4,5.4,0,10.9,2.7,13.6	c2.7,2.7,5.4,4.1,9.5,4.1h4.1l163.1-53c2.7,0,4.1-1.4,5.4-2.7l267.7-267.7l379.2,376.4c2.7,2.7,5.4,4.1,9.5,4.1	c4.1,0,6.8-1.4,9.5-4.1l154.9-154.9c2.7-2.7,4.1-5.4,4.1-9.5C1155.6,956.8,1152.9,954.1,1151.6,951.4L1151.6,951.4z M326.7,982.7	c-9.5-20.4-21.7-38.1-38.1-53c-16.3-16.3-34-28.5-53-38.1L820,307.2l91.1,91.1L326.7,982.7z M930.1,377.9l-91-91l61.2-61.2	l91.1,91.1L930.1,377.9z M969.5,156.4c15-15,38.1-15,53,0l39.4,39.4c15,15,15,38.1,0,53l-50.3,50.3l-91.1-91.1L969.5,156.4z	 M121.5,229.8L256,95.3l92.4,92.4l-53,51.6c-2.7,2.7-2.7,6.8,0,9.5c1.4,1.4,2.7,1.4,5.4,1.4c2.7,0,4.1,0,5.4-1.4l51.6-51.6	l78.8,78.8l-51.6,51.6c-2.7,2.7-2.7,6.8,0,9.5c1.4,1.4,2.7,1.4,5.4,1.4c2.7,0,4.1,0,5.4-1.4l51.6-51.6l78.8,78.8L472.1,416	c-2.7,2.7-2.7,6.8,0,9.5c1.4,1.4,2.7,1.4,5.4,1.4c2.7,0,4.1,0,5.4-1.4l51.6-51.6l89.7,89.7L489.8,598.1L121.5,229.8z M219.3,913.4	c17.7,8.1,35.3,20.4,48.9,34c15,15,25.8,31.3,34,48.9L178.6,1037L219.3,913.4z M987.2,1095.5L618.9,728.5L753.4,594l35.3,35.3	L737.1,681c-2.7,2.7-2.7,6.8,0,9.5c1.4,1.4,2.7,1.4,5.4,1.4c2.7,0,4.1,0,5.4-1.4l51.6-51.6l78.8,78.8l-53,50.3	c-2.7,2.7-2.7,6.8,0,9.5c1.4,1.4,2.7,1.4,5.4,1.4c2.7,0,4.1,0,5.4-1.4l51.6-51.6l78.8,78.8l-51.6,51.6c-2.7,2.7-2.7,6.8,0,9.5	c1.4,1.4,2.7,1.4,5.4,1.4c2.7,0,4.1,0,5.4-1.4l51.6-51.6l146.8,146.8L987.2,1095.5z"/>
    </symbol>
</svg>






